<?xml version="1.0" encoding="UTF-8"?> <svg xmlns="http://www.w3.org/2000/svg" id="Layer_1" data-name="Layer 1" viewBox="0 0 332.64 277.98"><defs><style>.cls-1{fill:#004b8d;}</style></defs><path class="cls-1" d="M185,44.22V37.58h6.8v6.64Z"></path><path class="cls-1" d="M196.81,44.22V37.58h6.8v6.64Z"></path><path class="cls-1" d="M208.62,44.22V37.58h6.8v6.64Z"></path><path class="cls-1" d="M239.43,51.09l-1.12-.56a40.67,40.67,0,0,0-50.37-49l-.24.07a40.54,40.54,0,0,0-26.5,23.6,51.94,51.94,0,0,0-25-6.52h-.29A52.14,52.14,0,0,0,92.33,99.4l-.24.23L88.3,103a11.34,11.34,0,0,0,7.57,19.78c.32,0,.64,0,1,0l5.07-.43A35.4,35.4,0,0,0,115,118.56a52.15,52.15,0,0,0,72.26-38.84,40.67,40.67,0,0,0,36-6.52,28.4,28.4,0,0,0,4.33.33,28.69,28.69,0,0,0,5.24-.48l3.6-.67a11.33,11.33,0,0,0,3-21.29ZM164.78,99.64A40.81,40.81,0,0,1,115.26,106h0a1.4,1.4,0,0,0-.74-.2,1.52,1.52,0,0,0-.9.3h0a23.94,23.94,0,0,1-12.66,5l-5.07.43,3.79-3.4a25.08,25.08,0,0,0,5.94-8.71h0a1.43,1.43,0,0,0-.25-1.55h0a40.8,40.8,0,0,1,53.1-61l.67.46,1,.73.34.26a42,42,0,0,1,4.29,3.73c.46.46.91.93,1.34,1.41l.07.07c.36.4.71.81,1.05,1.22l.38.45c.32.39.62.79.92,1.18.14.19.28.37.41.56.29.39.57.79.85,1.2.11.17.23.34.34.52a40.81,40.81,0,0,1-5.36,51.09Zm66-37.74a17.24,17.24,0,0,1-9.74-1h0a1.1,1.1,0,0,0-.4-.08,1,1,0,0,0-.29,0,1.17,1.17,0,0,0-.48.28h0A29.29,29.29,0,0,1,188,68a51.73,51.73,0,0,0-15.19-34.09c-.66-.66-1.34-1.3-2-1.93a29.94,29.94,0,0,1,2.49-5.74,29.36,29.36,0,0,1,51.94,27.33,1,1,0,0,0,.12,1.13h0a18,18,0,0,0,5.79,4.9l3.28,1.63Z"></path><path class="cls-1" d="M117.92,76.23V67.68h8.77v8.55Z"></path><path class="cls-1" d="M133.13,76.23V67.68h8.77v8.55Z"></path><path class="cls-1" d="M148.35,76.23V67.68h8.77v8.55Z"></path><path class="cls-1" d="M303.19,226.52a43.85,43.85,0,1,0-58.26,0,42.13,42.13,0,0,0-18.38,11.72,42.08,42.08,0,0,0-30.68-19.54,50.42,50.42,0,1,0-62.23,0,42.06,42.06,0,0,0-29.41,17.63,42,42,0,0,0-16.5-9.8,43.85,43.85,0,1,0-58.26,0A42.13,42.13,0,0,0,0,266.64,11.34,11.34,0,0,0,11.34,278h94.5c.35,0,.7,0,1-.05s.7.05,1,.05H221.56a11.32,11.32,0,0,0,2.62-.32,11.32,11.32,0,0,0,2.62.32h94.5a11.34,11.34,0,0,0,11.34-11.34A42.09,42.09,0,0,0,303.19,226.52Zm-61.63-32.73a32.5,32.5,0,1,1,42.87,30.8H263.69A32.51,32.51,0,0,1,241.56,193.79ZM125.68,179.06a39.08,39.08,0,1,1,39.08,39.08A39.08,39.08,0,0,1,125.68,179.06Zm13,50.66h52.2a30.26,30.26,0,0,1,6.71.74c12.27,2.73,21.23,13.32,22.57,25.82l1.11,10.36H110.05l1-13.56a24,24,0,0,1,10.24-18A30.62,30.62,0,0,1,138.66,229.72ZM26.1,193.79A32.5,32.5,0,1,1,69,224.59H48.23A32.51,32.51,0,0,1,26.1,193.79Zm16,42.14h4.48a43.63,43.63,0,0,0,24.12,0h4.48a30.62,30.62,0,0,1,23.65,11.13,41.92,41.92,0,0,0-2.19,13.37v6.21H11.35A30.71,30.71,0,0,1,42.06,235.93ZM232.9,266.64v-6.21a42,42,0,0,0-1.27-10.29,30.68,30.68,0,0,1,25.89-14.21H262a43.63,43.63,0,0,0,24.12,0h4.48a30.71,30.71,0,0,1,30.71,30.71Z"></path></svg> 